<?xml version="1.0" standalone="no"?>
<!DOCTYPE svg PUBLIC "-//W3C//DTD SVG 20010904//EN"
 "http://www.w3.org/TR/2001/REC-SVG-20010904/DTD/svg10.dtd">
<svg version="1.0" xmlns="http://www.w3.org/2000/svg"
 width="208.000000pt" height="74.000000pt" viewBox="0 0 208.000000 74.000000"
 preserveAspectRatio="xMidYMid meet">
<metadata>
Created by potrace 1.15, written by Peter Selinger 2001-2017
</metadata>
<g transform="translate(0.000000,74.000000) scale(0.100000,-0.100000)"
fill="#aa2525" stroke="none">
<path d="M10 728 c0 -3 22 -52 49 -109 56 -120 81 -196 81 -252 0 -47 -35
-155 -89 -271 -46 -100 -55 -93 100 -71 569 79 1203 80 1763 0 171 -24 162
-29 117 63 -56 113 -92 220 -93 273 0 64 25 144 82 267 30 62 44 102 36 102
-7 0 -77 -9 -155 -20 -298 -41 -493 -54 -856 -54 -391 -1 -603 14 -987 70 -27
4 -48 5 -48 2z"/>
</g>
</svg>
