<?xml version="1.0" standalone="no"?>
<!DOCTYPE svg PUBLIC "-//W3C//DTD SVG 20010904//EN"
 "http://www.w3.org/TR/2001/REC-SVG-20010904/DTD/svg10.dtd">
<svg version="1.0" xmlns="http://www.w3.org/2000/svg"
 width="338.000000pt" height="111.000000pt" viewBox="0 0 338.000000 111.000000"
 preserveAspectRatio="xMidYMid meet">
<metadata>
Created by potrace 1.15, written by Peter Selinger 2001-2017
</metadata>
<g transform="translate(0.000000,111.000000) scale(0.100000,-0.100000)"
fill="#000000" stroke="none">
<path d="M82 1055 c-22 -18 -34 -40 -41 -76 -12 -53 -16 -565 -5 -594 23 -59
350 -141 719 -179 88 -9 177 -27 277 -55 198 -55 389 -97 533 -117 102 -15
136 -15 230 -5 140 15 404 68 615 125 91 24 203 47 250 50 260 22 592 100 664
157 l26 20 0 320 0 321 -29 29 -29 29 -1590 0 -1590 0 -30 -25z"/>
</g>
</svg>
